<svg width="30" height="30" viewBox="0 0 30 30" fill="none" xmlns="http://www.w3.org/2000/svg">
<path fill-rule="evenodd" clip-rule="evenodd" d="M15 27C18.1826 27 21.2348 25.7357 23.4853 23.4853C25.7357 21.2348 27 18.1826 27 15C27 11.8174 25.7357 8.76516 23.4853 6.51472C21.2348 4.26428 18.1826 3 15 3C11.8174 3 8.76516 4.26428 6.51472 6.51472C4.26428 8.76516 3 11.8174 3 15C3 18.1826 4.26428 21.2348 6.51472 23.4853C8.76516 25.7357 11.8174 27 15 27ZM16.5 9C16.5 8.60218 16.342 8.22064 16.0607 7.93934C15.7794 7.65804 15.3978 7.5 15 7.5C14.6022 7.5 14.2206 7.65804 13.9393 7.93934C13.658 8.22064 13.5 8.60218 13.5 9V15C13.5001 15.3978 13.6582 15.7793 13.9395 16.0605L18.1815 20.304C18.3209 20.4434 18.4863 20.5539 18.6684 20.6293C18.8505 20.7048 19.0457 20.7436 19.2428 20.7436C19.4398 20.7436 19.635 20.7048 19.8171 20.6293C19.9992 20.5539 20.1646 20.4434 20.304 20.304C20.4434 20.1646 20.5539 19.9992 20.6293 19.8171C20.7048 19.635 20.7436 19.4398 20.7436 19.2428C20.7436 19.0457 20.7048 18.8505 20.6293 18.6684C20.5539 18.4863 20.4434 18.3209 20.304 18.1815L16.5 14.379V9Z" fill="#0F0B00"/>
</svg>
