<svg width="60" height="60" viewBox="0 0 60 60" fill="none" xmlns="http://www.w3.org/2000/svg">
<g clip-path="url(#clip0_12_26721)">
<path d="M30.0117 0.0117188C17.4844 0.0117188 13.8281 0.0234375 13.1133 0.0820312C10.5352 0.292969 8.94141 0.703125 7.19531 1.57031C5.85938 2.23828 4.79297 3 3.75 4.08984C1.85156 6.07031 0.691406 8.49609 0.28125 11.3906C0.0820313 12.7969 0.0234375 13.0781 0.0117188 20.25V30C0.0117188 42.5156 0.0234375 46.1719 0.0820312 46.8867C0.292969 49.3828 0.679687 50.9648 1.51172 52.6875C3.09375 55.9805 6.12891 58.4531 9.70312 59.3789C10.9453 59.6953 12.3047 59.8711 14.0625 59.9531C14.8008 59.9883 22.3828 60.0117 29.9531 60.0117C37.5234 60.0117 45.1055 60 45.832 59.9648C47.8594 59.8711 49.043 59.707 50.3437 59.3789C53.9414 58.4531 56.918 56.0156 58.5352 52.6758C59.3555 51 59.7656 49.3594 59.9531 46.9922C59.9883 46.4766 60.0117 38.2383 60.0117 30.0117C60.0117 21.7852 59.9883 13.5586 59.9531 13.043C59.7656 10.6289 59.3555 9.01172 58.5117 7.30078C57.8203 5.89453 57.0586 4.85156 55.9453 3.78516C53.9648 1.88672 51.5391 0.738281 48.6445 0.316406C47.2383 0.117188 46.9687 0.0585938 39.7969 0.046875H30.0117V0.0117188Z" fill="url(#paint0_radial_12_26721)"/>
<path d="M30.0117 0.0117188C17.4844 0.0117188 13.8281 0.0234375 13.1133 0.0820312C10.5352 0.292969 8.94141 0.703125 7.19531 1.57031C5.85938 2.23828 4.79297 3 3.75 4.08984C1.85156 6.07031 0.691406 8.49609 0.28125 11.3906C0.0820313 12.7969 0.0234375 13.0781 0.0117188 20.25V30C0.0117188 42.5156 0.0234375 46.1719 0.0820312 46.8867C0.292969 49.3828 0.679687 50.9648 1.51172 52.6875C3.09375 55.9805 6.12891 58.4531 9.70312 59.3789C10.9453 59.6953 12.3047 59.8711 14.0625 59.9531C14.8008 59.9883 22.3828 60.0117 29.9531 60.0117C37.5234 60.0117 45.1055 60 45.832 59.9648C47.8594 59.8711 49.043 59.707 50.3437 59.3789C53.9414 58.4531 56.918 56.0156 58.5352 52.6758C59.3555 51 59.7656 49.3594 59.9531 46.9922C59.9883 46.4766 60.0117 38.2383 60.0117 30.0117C60.0117 21.7852 59.9883 13.5586 59.9531 13.043C59.7656 10.6289 59.3555 9.01172 58.5117 7.30078C57.8203 5.89453 57.0586 4.85156 55.9453 3.78516C53.9648 1.88672 51.5391 0.738281 48.6445 0.316406C47.2383 0.117188 46.9687 0.0585938 39.7969 0.046875H30.0117V0.0117188Z" fill="url(#paint1_radial_12_26721)"/>
<path d="M30 7.85156C23.9883 7.85156 23.2266 7.875 20.8711 7.98047C18.5156 8.08594 16.8984 8.46094 15.4922 9.01172C14.0391 9.57422 12.7969 10.3359 11.5664 11.5664C10.3359 12.7969 9.57422 14.0391 9.01172 15.4922C8.46094 16.8984 8.08594 18.5156 7.98047 20.8711C7.875 23.2383 7.85156 23.9883 7.85156 30C7.85156 36.0117 7.875 36.7734 7.98047 39.1289C8.08594 41.4844 8.46094 43.1016 9.01172 44.5078C9.57422 45.9609 10.3359 47.2031 11.5664 48.4336C12.7969 49.6641 14.0273 50.4258 15.4922 50.9883C16.8984 51.5391 18.5156 51.9141 20.8711 52.0195C23.2383 52.125 23.9883 52.1484 30 52.1484C36.0117 52.1484 36.7734 52.125 39.1289 52.0195C41.4844 51.9141 43.1016 51.5391 44.5078 50.9883C45.9609 50.4258 47.2031 49.6641 48.4336 48.4336C49.6641 47.2031 50.4258 45.9609 50.9883 44.5078C51.5273 43.1016 51.9023 41.4844 52.0195 39.1289C52.125 36.7617 52.1484 36.0117 52.1484 30C52.1484 23.9883 52.125 23.2266 52.0195 20.8711C51.9141 18.5156 51.5391 16.8984 50.9883 15.4922C50.4258 14.0391 49.6641 12.7969 48.4336 11.5664C47.2031 10.3359 45.9727 9.57422 44.5078 9.01172C43.1016 8.46094 41.4844 8.08594 39.1289 7.98047C36.7617 7.875 36.0117 7.85156 30 7.85156ZM28.0078 11.8477H30C35.918 11.8477 36.6094 11.8711 38.9531 11.9766C41.1094 12.0703 42.2812 12.4336 43.0664 12.7383C44.0977 13.1367 44.8359 13.6172 45.6094 14.3906C46.3828 15.1641 46.8633 15.9023 47.2617 16.9336C47.5664 17.7188 47.9297 18.8906 48.0234 21.0469C48.1289 23.3789 48.1523 24.082 48.1523 30C48.1523 35.918 48.1289 36.6094 48.0234 38.9531C47.9297 41.1094 47.5664 42.2812 47.2617 43.0664C46.8633 44.0977 46.3828 44.8359 45.6094 45.6094C44.8359 46.3828 44.0977 46.8633 43.0664 47.2617C42.2812 47.5664 41.1094 47.9297 38.9531 48.0234C36.6211 48.1289 35.918 48.1523 30 48.1523C24.082 48.1523 23.3789 48.1289 21.0469 48.0234C18.8906 47.918 17.7188 47.5664 16.9336 47.2617C15.9023 46.8633 15.1641 46.3828 14.3906 45.6094C13.6172 44.8359 13.1367 44.0977 12.7383 43.0664C12.4336 42.2812 12.0703 41.1094 11.9766 38.9531C11.8711 36.6211 11.8477 35.918 11.8477 30C11.8477 24.082 11.8711 23.3906 11.9766 21.0469C12.0703 18.8906 12.4336 17.7188 12.7383 16.9336C13.1367 15.9023 13.6172 15.1641 14.3906 14.3906C15.1641 13.6172 15.9023 13.1367 16.9336 12.7383C17.7188 12.4336 18.8906 12.0703 21.0469 11.9766C23.0859 11.8711 23.8828 11.8477 28.0078 11.8477ZM41.8242 15.5273C40.3594 15.5273 39.1641 16.7109 39.1641 18.1875C39.1641 19.6523 40.3594 20.8477 41.8242 20.8477C43.2891 20.8477 44.4844 19.6523 44.4844 18.1875C44.4844 16.7227 43.2891 15.5156 41.8242 15.5273ZM30 18.6328C23.7188 18.6328 18.6211 23.7305 18.6211 30.0117C18.6211 36.293 23.7188 41.3789 30 41.3789C36.2812 41.3789 41.3672 36.293 41.3672 30.0117C41.3672 23.7305 36.2812 18.6328 30 18.6328ZM30 22.6172C34.0781 22.6172 37.3828 25.9219 37.3828 30C37.3828 34.0781 34.0781 37.3828 30 37.3828C25.9219 37.3828 22.6172 34.0781 22.6172 30C22.6172 25.9219 25.9219 22.6172 30 22.6172Z" fill="white"/>
</g>
<defs>
<radialGradient id="paint0_radial_12_26721" cx="0" cy="0" r="1" gradientUnits="userSpaceOnUse" gradientTransform="translate(15.9377 64.6122) rotate(-90) scale(59.4488 55.3066)">
<stop stop-color="#FFDD55"/>
<stop offset="0.1" stop-color="#FFDD55"/>
<stop offset="0.5" stop-color="#FF543E"/>
<stop offset="1" stop-color="#C837AB"/>
</radialGradient>
<radialGradient id="paint1_radial_12_26721" cx="0" cy="0" r="1" gradientUnits="userSpaceOnUse" gradientTransform="translate(-10.0516 4.32831) rotate(78.6799) scale(26.5731 109.566)">
<stop stop-color="#3771C8"/>
<stop offset="0.128" stop-color="#3771C8"/>
<stop offset="1" stop-color="#6600FF" stop-opacity="0"/>
</radialGradient>
<clipPath id="clip0_12_26721">
<rect width="60" height="60" fill="white"/>
</clipPath>
</defs>
</svg>
