<svg width="60" height="60" viewBox="0 0 60 60" fill="none" xmlns="http://www.w3.org/2000/svg">
<g clip-path="url(#clip0_12_26717)">
<path fill-rule="evenodd" clip-rule="evenodd" d="M59.9941 44.7668C59.9941 45.0949 59.9777 45.8016 59.9613 46.3605C59.9121 47.7082 59.8137 49.4496 59.6496 50.2395C59.4035 51.423 59.0414 52.5563 58.5645 53.4938C58.0055 54.5953 57.2824 55.5973 56.4281 56.4516C55.5738 57.3059 54.5871 58.0289 53.4867 58.5879C52.5504 59.0648 51.416 59.4258 50.216 59.673C49.4273 59.8371 47.7012 59.9355 46.3699 59.9848C45.8109 60.0012 45.1043 60.0176 44.7762 60.0176H15.2449C14.9168 60.0176 14.2102 60.0012 13.6512 59.9848C12.3035 59.9355 10.5621 59.8371 9.77227 59.673C8.58867 59.427 7.45547 59.0648 6.51797 58.5879C5.41641 58.0289 4.41445 57.3059 3.56016 56.4516C2.70586 55.5973 1.98281 54.6105 1.42383 53.5102C0.946875 52.5738 0.585938 51.4395 0.338672 50.2395C0.174609 49.4508 0.0761719 47.7246 0.0269531 46.3934C0.0105469 45.8344 -0.00585938 45.1277 -0.00585938 44.7996V15.2684C-0.00585938 14.9402 0.0105469 14.2336 0.0269531 13.6746C0.0761719 12.327 0.174609 10.5855 0.338672 9.7957C0.584766 8.61211 0.946875 7.47891 1.42383 6.54141C1.98281 5.43984 2.70586 4.43789 3.56016 3.58359C4.41445 2.7293 5.40117 2.00625 6.50156 1.44727C7.43789 0.970313 8.57227 0.609375 9.77227 0.362109C10.5609 0.198047 12.2871 0.0996094 13.6184 0.0503906C14.1773 0.0339844 14.884 0.0175781 15.2121 0.0175781H44.7434C45.0715 0.0175781 45.7781 0.0339844 46.3371 0.0503906C47.6848 0.0996094 49.4262 0.198047 50.216 0.362109C51.3996 0.608203 52.5328 0.970313 53.4703 1.44727C54.5719 2.00625 55.5738 2.7293 56.4281 3.58359C57.2824 4.43789 58.0055 5.42461 58.5645 6.525C59.0414 7.46133 59.4023 8.5957 59.6496 9.7957C59.8137 10.5844 59.9121 12.3105 59.9613 13.6418C59.9777 14.2008 59.9941 14.9074 59.9941 15.2355V44.7668Z" fill="url(#paint0_linear_12_26717)"/>
<path fill-rule="evenodd" clip-rule="evenodd" d="M45.7793 14.3648C41.7363 10.3219 36.3797 8.10352 30.6598 8.10352C18.8766 8.10352 9.27892 17.6848 9.27892 29.4844C9.27892 33.2473 10.2645 36.9293 12.1383 40.166L9.09845 51.2426L20.4375 48.2684C23.5594 49.977 27.0774 50.8652 30.6598 50.8652H30.6762C42.4594 50.8652 52.057 41.2676 52.057 29.4844C52.0406 23.7645 49.8211 18.4066 45.7793 14.3648ZM30.6598 47.2488C27.4711 47.2488 24.3328 46.3945 21.6047 44.7668L20.9637 44.3883L14.2254 46.1473L16.0172 39.5906L15.5895 38.9168C13.8141 36.0902 12.8777 32.8195 12.8777 29.4668C12.8777 19.6723 20.8477 11.7023 30.6586 11.7023C35.4082 11.7023 39.8613 13.5598 43.2305 16.9113C46.5832 20.2641 48.4395 24.7336 48.4231 29.4832C48.4242 39.2777 40.4543 47.2488 30.6598 47.2488ZM40.4051 33.9375C39.8625 33.675 37.2492 32.3766 36.757 32.1961C36.2649 32.0156 35.9192 31.9336 35.557 32.4586C35.1949 33.0012 34.1766 34.2 33.8649 34.5457C33.5531 34.9078 33.2402 34.9406 32.7141 34.677C32.1715 34.4145 30.4629 33.8391 28.425 32.0309C26.8313 30.6176 25.7625 28.8586 25.4508 28.3336C25.1391 27.791 25.418 27.5121 25.6805 27.2484C25.9266 27.0023 26.2231 26.6238 26.4856 26.3121C26.7481 26.0004 26.8477 25.7695 27.0281 25.425C27.2086 25.0629 27.1102 24.7512 26.9789 24.4887C26.8477 24.2262 25.7789 21.5965 25.3359 20.5277C24.9082 19.493 24.4652 19.6242 24.136 19.6078C23.8242 19.5914 23.4621 19.5914 23.1176 19.5914C22.7555 19.5914 22.1813 19.7227 21.6879 20.2652C21.1945 20.8078 19.8141 22.0898 19.8141 24.7184C19.8141 27.3469 21.7207 29.8781 21.9996 30.2402C22.2621 30.6023 25.7625 35.9918 31.1203 38.3098C32.4024 38.8523 33.3879 39.1805 34.1602 39.4277C35.4422 39.8391 36.6094 39.7723 37.5293 39.641C38.5477 39.4934 40.6852 38.3426 41.1281 37.0934C41.5723 35.8441 41.5723 34.7766 41.4399 34.5457C41.2922 34.3477 40.9313 34.2164 40.4051 33.9375Z" fill="white"/>
</g>
<defs>
<linearGradient id="paint0_linear_12_26717" x1="29.9932" y1="60.0164" x2="29.9932" y2="0.0194735" gradientUnits="userSpaceOnUse">
<stop stop-color="#25CF43"/>
<stop offset="1" stop-color="#61FD7D"/>
</linearGradient>
<clipPath id="clip0_12_26717">
<rect width="60" height="60" fill="white"/>
</clipPath>
</defs>
</svg>
