<svg width="100" height="157" viewBox="0 0 100 157" fill="none" xmlns="http://www.w3.org/2000/svg">
<path fill-rule="evenodd" clip-rule="evenodd" d="M79.1117 157C78.1464 157 77.4577 156.237 77.4577 155.134V146.97C77.4583 146.837 77.4072 146.709 77.3153 146.614C77.2234 146.518 77.0979 146.462 76.9655 146.457H25.0262C24.8177 146.46 24.6108 146.421 24.4173 146.343C24.2239 146.265 24.0477 146.149 23.8988 146.003C23.75 145.856 23.6314 145.682 23.5498 145.489C23.4683 145.297 23.4254 145.09 23.4237 144.881V143.666C23.4237 142.945 23.8262 141.988 24.3375 141.496L26.1366 139.682C26.6383 139.189 27.5827 138.775 28.3 138.775H36.4595C36.8907 138.775 37.5603 138.507 37.8675 138.188L41.3263 134.731C41.6125 134.421 41.891 133.753 41.891 133.32V123.826C41.891 123.386 41.6125 122.726 41.3263 122.447L29.7671 110.856C29.7143 110.801 29.6504 110.758 29.5796 110.73C29.5089 110.702 29.4329 110.689 29.3569 110.693C29.2129 110.694 29.0729 110.741 28.9563 110.825L25.8161 113.492C25.486 113.749 25.2113 114.357 25.2113 114.79L25.1903 131.001C25.1903 131.725 24.8087 132.641 24.307 133.167L11.9255 145.581C11.4257 146.065 10.4813 146.457 9.77355 146.457H4.63972C4.22041 146.459 3.81742 146.295 3.51915 145.999C3.22087 145.704 3.05166 145.301 3.04863 144.881V143.666C3.04863 142.945 3.45689 141.988 3.98153 141.496L13.5586 132.383C13.8772 132.075 14.1557 131.426 14.1557 131.001L14.1557 101.488C14.1557 101.067 13.8886 100.388 13.57 100.076L7.60631 94.1062C7.05692 93.5095 6.73649 92.7365 6.70202 91.925L6.70202 29.8444C6.70202 29.4044 6.43684 28.7328 6.13732 28.4439L0.890932 23.2032C0.348086 22.6042 0.032693 21.8327 0 21.0239L0 14.8648C0 14.1454 0.398726 13.1887 0.913826 12.7142L1.6922 11.9202C1.994 11.6311 2.39471 11.4688 2.81206 11.4667C3.24322 11.4667 3.65339 11.6332 3.95292 11.9431L9.52554 17.532C9.64954 17.6449 9.78118 17.7176 9.91663 17.7176C9.95424 17.7179 9.99153 17.7106 10.0263 17.6961C10.061 17.6817 10.0925 17.6604 10.1189 17.6334C10.3669 17.3885 10.592 16.759 10.592 16.3477L10.5805 7.61896C10.5805 6.87658 11.0441 5.95052 11.6088 5.48749L17.645 0.772994C18.2002 0.338663 19.156 0 19.8428 0L22.4374 0C23.3111 0 24.0285 0.721333 24.0285 1.59573V12.4463C24.0285 12.8807 24.307 13.5465 24.6046 13.8565L37.8045 27.0873C38.3177 27.579 38.6993 28.5185 38.6993 29.2685V36.2293C38.6993 36.6713 38.9874 37.3276 39.2831 37.5993L47.8757 46.0888C48.3984 46.6341 48.7781 47.5525 48.7781 48.2834V49.242C48.7768 49.45 48.7347 49.6558 48.6542 49.8475C48.5736 50.0393 48.4562 50.2132 48.3087 50.3594C48.1611 50.5057 47.9863 50.6213 47.7941 50.6998C47.602 50.7782 47.3963 50.8179 47.1889 50.8167H44.4894C44.3573 50.8187 44.2314 50.8729 44.1388 50.9674C44.0463 51.062 43.9947 51.1893 43.9953 51.3218V52.5444C43.9953 52.9577 44.2624 53.6178 44.579 53.9259L61.2015 70.6333C61.7033 71.0982 62.1115 72.0644 62.1115 72.7953V73.8879C62.1115 74.3298 62.3805 74.988 62.6991 75.2865L88.8719 101.157C89.3966 101.674 89.7781 102.598 89.7781 103.321V104.545C89.7781 104.98 90.0548 105.638 90.3524 105.925L94.2004 109.817C94.6945 110.289 95.0932 111.248 95.0932 111.979V112.926C95.0932 113.368 95.3412 114.007 95.6598 114.315L99.1072 117.805C99.6204 118.343 100 119.267 100 119.967L100 135.657C100 136.387 99.6013 137.336 99.1072 137.84L81.0729 156.051C80.4281 156.68 79.747 157 79.1117 157Z" fill="#F1BB13"/>
</svg>
